# xmcd CD database file
#
# Track frame offsets:
#	200
#	15572
#	35992
#	56140
#	75580
#	101957
#	120855
#	144392
#	159327
#	179705
#
# Disc length: 2635 seconds
#
# Revision: 2
# Processed by: cddbd v1.5.2PL0 Copyright (c) Steve Scherf et al.
# Submitted via: CDex 1.74
#
DISCID=830a490a
DTITLE=Lizotte, Chris - Long Time Comin'
DYEAR=1994
DGENRE=Blues
TTITLE0=Gonna Take You Back (Ft. Sleepy Ray McDonald)
TTITLE1=Hold Me Up (Lead Vocal Maria McKee, Ft. Sleepy Ray McDonald)
TTITLE2=You Loved Me Still (Ft. John Andrew Shreiner)
TTITLE3=I Wanna Know The Father (Ft. Sleepy Ray McDonald)
TTITLE4=How Priceless (Ft. Andy Park, Sleepy Ray McDonald)
TTITLE5=Heaven's Lookin Better All The Time (Ft. Sleepy Ray McDonald)
TTITLE6=Long Time Comin' (Ft. Sleepy Ray McDonald)
TTITLE7=In Another Place (Ft. Sleepy Ray McDonald)
TTITLE8=Prayer Of The Unbeliever (Ft. Sleepy Ray McDonald)
TTITLE9=Peace Be With You (Ft. John Andrew Shreiner)
EXTD=YEAR: 1994
EXTT0=
EXTT1=w/ Maria McKee
EXTT2=
EXTT3=
EXTT4=
EXTT5=
EXTT6=
EXTT7=
EXTT8=
EXTT9=
PLAYORDER=
